<?xml version="1.0" encoding="UTF-8"?>
<svg version="1.1" xmlns="http://www.w3.org/2000/svg" width="224" height="224">
<path d="M0 0 C73.92 0 147.84 0 224 0 C224 73.92 224 147.84 224 224 C150.08 224 76.16 224 0 224 C0 150.08 0 76.16 0 0 Z " fill="#FCFCFC" transform="translate(0,0)"/>
<path d="M0 0 C3.45318777 0.10514829 6.89886672 0.12303642 10.35351562 0.12792969 C12.55671242 0.15673488 14.7598521 0.1904139 16.96289062 0.22949219 C18.50354187 0.24254395 18.50354187 0.24254395 20.07531738 0.25585938 C27.19040026 0.5165574 27.19040026 0.5165574 30.6796875 3.28417969 C31.42283203 4.21488281 32.16597656 5.14558594 32.93164062 6.10449219 C34.18017662 6.96290798 35.4302711 7.81905996 36.68164062 8.67333984 C39.85925193 11.38622118 40.48508918 13.39145922 40.86914062 17.52392578 C40.92864277 19.68287443 40.94709686 21.84321654 40.93164062 24.00292969 C40.94880127 25.72632065 40.94880127 25.72632065 40.96630859 27.48452759 C40.97981087 29.91022381 40.9753396 32.33607792 40.95410156 34.76171875 C40.93174487 38.46223758 40.9945157 42.15470391 41.06445312 45.85449219 C41.06701708 48.2164714 41.06457758 50.57846242 41.05664062 52.94042969 C41.08113281 54.03962738 41.105625 55.13882507 41.13085938 56.27133179 C41.03313241 60.91430569 40.8676396 63.92445435 37.92285156 67.63702393 C31.94292518 73.10449219 31.94292518 73.10449219 28.93164062 73.10449219 C28.43664062 74.58949219 28.43664062 74.58949219 27.93164062 76.10449219 C21.10006495 76.25718469 14.26893256 76.36193402 7.43603516 76.43408203 C5.11392777 76.46417204 2.79193326 76.50505482 0.47021484 76.55712891 C-2.87626047 76.63028375 -6.22122767 76.66402771 -9.56835938 76.69042969 C-10.59888428 76.7213974 -11.62940918 76.75236511 -12.69116211 76.78427124 C-20.08344968 76.78768825 -23.66192354 74.9931751 -29.06835938 70.10449219 C-29.95223076 69.56085022 -29.95223076 69.56085022 -30.85395813 69.00622559 C-33.49592456 67.33094074 -34.91244005 65.73551909 -35.66268921 62.69915771 C-35.98232692 59.58810604 -36.0834005 56.53658608 -36.11132812 53.40917969 C-36.1336702 52.26595245 -36.15601227 51.12272522 -36.17903137 49.94485474 C-36.21376194 47.52591359 -36.2320537 45.10668853 -36.23510742 42.6875 C-36.25569358 39.00911686 -36.37730727 35.34305159 -36.50390625 31.66699219 C-36.84307905 12.61898283 -36.84307905 12.61898283 -31.63032532 6.38577271 C-23.08992081 -1.35749359 -10.79001189 -0.33815736 0 0 Z " fill="#262223" transform="translate(152.068359375,22.8955078125)"/>
<path d="M0 0 C1.36754929 -0.038619 1.36754929 -0.038619 2.76272583 -0.07801819 C6.94176946 -0.16265255 11.12064703 -0.22807721 15.30029297 -0.27441406 C17.49817804 -0.30600218 19.69589404 -0.35370195 21.89306641 -0.41796875 C42.52739116 -1.01289094 42.52739116 -1.01289094 48.22998047 4.08813477 C49.34239089 5.45106414 50.43106317 6.83393823 51.48779297 8.24047852 C52.19895264 8.69148926 52.9101123 9.1425 53.64282227 9.60717773 C55.48779297 11.24047852 55.48779297 11.24047852 56.11645508 14.08447266 C56.27817803 17.82746949 56.39985634 21.55623162 56.42529297 25.30297852 C56.43269501 25.96698669 56.44009705 26.63099487 56.44772339 27.31512451 C56.48914849 39.8445955 56.48914849 39.8445955 53.05810547 44.27563477 C50.31184276 46.64027396 47.60665457 48.42073711 44.48779297 50.24047852 C44.15779297 51.23047852 43.82779297 52.22047852 43.48779297 53.24047852 C44.14779297 53.24047852 44.80779297 53.24047852 45.48779297 53.24047852 C46.66145356 55.0940936 47.7518387 57.00077544 48.80029297 58.92797852 C51.57255187 63.94807923 51.57255187 63.94807923 55.36279297 68.17797852 C57.84226757 70.58452739 57.9725858 71.91355562 58.48779297 75.24047852 C54.55035463 75.29845416 50.61302578 75.3340664 46.67529297 75.36547852 C45.55574219 75.38223633 44.43619141 75.39899414 43.28271484 75.41625977 C42.20957031 75.42270508 41.13642578 75.42915039 40.03076172 75.43579102 C38.54612427 75.45150146 38.54612427 75.45150146 37.03149414 75.4675293 C34.48779297 75.24047852 34.48779297 75.24047852 31.48779297 73.24047852 C31.48779297 71.92047852 31.48779297 70.60047852 31.48779297 69.24047852 C30.49779297 68.91047852 29.50779297 68.58047852 28.48779297 68.24047852 C27.24169922 66.31469727 27.24169922 66.31469727 26.05029297 63.92797852 C24.21604221 60.42066874 22.34758943 57.99435659 19.48779297 55.24047852 C19.48779297 54.25047852 19.48779297 53.26047852 19.48779297 52.24047852 C13.87779297 52.24047852 8.26779297 52.24047852 2.48779297 52.24047852 C2.48779297 59.83047852 2.48779297 67.42047852 2.48779297 75.24047852 C-4.77220703 75.24047852 -12.03220703 75.24047852 -19.51220703 75.24047852 C-19.78465493 67.2161893 -20.00418508 59.19556291 -20.13395309 51.16787243 C-20.19627616 47.43909004 -20.28059091 43.71366557 -20.41748047 39.98681641 C-21.35176882 13.88949428 -21.35176882 13.88949428 -16.89306641 7.80932617 C-12.19209463 2.90292852 -6.77817055 0.18536423 0 0 Z " fill="#242223" transform="translate(49.51220703125,114.759521484375)"/>
<path d="M0 0 C1.20567627 0.00753296 2.41135254 0.01506592 3.65356445 0.02282715 C7.47857503 0.05520045 11.30076282 0.13688118 15.125 0.21875 C17.72523044 0.2453061 20.32549434 0.26877588 22.92578125 0.2890625 C27.65275715 0.33929392 32.37924525 0.39486365 37.10546875 0.49414062 C38.05317139 0.51303345 39.00087402 0.53192627 39.97729492 0.5513916 C42.125 0.71875 42.125 0.71875 43.125 1.71875 C43.125 6.99875 43.125 12.27875 43.125 17.71875 C27.615 17.71875 12.105 17.71875 -3.875 17.71875 C-3.875 22.00875 -3.875 26.29875 -3.875 30.71875 C-2.11071655 30.71089478 -2.11071655 30.71089478 -0.31079102 30.70288086 C4.03702031 30.68483337 8.3848283 30.67331892 12.73266602 30.66381836 C14.6174373 30.65877756 16.50220465 30.65194502 18.38696289 30.64331055 C21.09001636 30.63123383 23.79301831 30.62551932 26.49609375 30.62109375 C27.34400986 30.61593246 28.19192596 30.61077118 29.0655365 30.60545349 C31.08571068 30.60525805 33.10577934 30.65668789 35.125 30.71875 C38.66838194 34.26213194 36.125 40.70765121 36.125 45.71875 C23.255 45.71875 10.385 45.71875 -2.875 45.71875 C-2.875 49.67875 -2.875 53.63875 -2.875 57.71875 C11.975 57.71875 26.825 57.71875 42.125 57.71875 C42.125 63.65875 42.125 69.59875 42.125 75.71875 C34.45710205 75.91717284 26.79071248 76.06199914 19.12084961 76.15820312 C16.51446487 76.19832375 13.90825893 76.25283523 11.30249023 76.32226562 C7.54626278 76.41981134 3.79242338 76.46479388 0.03515625 76.5 C-1.12145004 76.54129028 -2.27805634 76.58258057 -3.4697113 76.62512207 C-11.10434577 76.62931414 -14.91887676 75.02810056 -20.36012268 69.63659668 C-21.875 67.71875 -21.875 67.71875 -21.875 65.71875 C-23.195 65.71875 -24.515 65.71875 -25.875 65.71875 C-25.875 47.89875 -25.875 30.07875 -25.875 11.71875 C-24.555 11.05875 -23.235 10.39875 -21.875 9.71875 C-21.875 9.05875 -21.875 8.39875 -21.875 7.71875 C-15.46326286 0.52387234 -9.22920118 -0.26397694 0 0 Z " fill="#262324" transform="translate(149.875,114.28125)"/>
<path d="M0 0 C1.21087784 0.00707474 2.42175568 0.01414948 3.66932678 0.0214386 C7.52107593 0.0493344 11.3713495 0.11206964 15.22265625 0.17578125 C17.84047374 0.20087008 20.4583141 0.22368222 23.07617188 0.24414062 C29.47973163 0.29914624 35.88219411 0.38539063 42.28515625 0.48828125 C42.28515625 6.42828125 42.28515625 12.36828125 42.28515625 18.48828125 C27.10515625 18.48828125 11.92515625 18.48828125 -3.71484375 18.48828125 C-3.38484375 31.02828125 -3.05484375 43.56828125 -2.71484375 56.48828125 C12.13515625 56.81828125 26.98515625 57.14828125 42.28515625 57.48828125 C42.28515625 63.42828125 42.28515625 69.36828125 42.28515625 75.48828125 C34.40150679 75.61187327 26.51842116 75.70262068 18.6340332 75.76293945 C15.95177171 75.78526119 13.27010205 75.82004919 10.58813477 75.86547852 C6.7330637 75.9261265 2.87889855 75.95449252 -0.9765625 75.9765625 C-2.77525032 76.01527214 -2.77525032 76.01527214 -4.61027527 76.05476379 C-12.9598447 76.05757723 -12.9598447 76.05757723 -16.57348633 73.33276367 C-17.28013428 72.39408447 -17.98678223 71.45540527 -18.71484375 70.48828125 C-19.96545373 69.63046164 -21.21933174 68.77739385 -22.47583008 67.92822266 C-24.77085012 65.96917398 -25.61333835 64.89624856 -26.34848022 61.94158936 C-26.5920738 58.75590061 -26.6065704 55.64355478 -26.5390625 52.44921875 C-26.53864456 51.29080475 -26.53822662 50.13239075 -26.53779602 48.93887329 C-26.52943106 46.49624411 -26.50400583 44.05362145 -26.46264648 41.61132812 C-26.40243262 37.86880511 -26.40107512 34.12965735 -26.40820312 30.38671875 C-26.39279804 28.01169367 -26.37403264 25.6366875 -26.3515625 23.26171875 C-26.35024826 22.14187592 -26.34893402 21.02203308 -26.34757996 19.86825562 C-26.32528824 18.82682404 -26.30299652 17.78539246 -26.2800293 16.71240234 C-26.26779831 15.79784271 -26.25556732 14.88328308 -26.2429657 13.94100952 C-25.55502133 10.74602659 -24.23317162 9.50505458 -21.71484375 7.48828125 C-21.05484375 7.48828125 -20.39484375 7.48828125 -19.71484375 7.48828125 C-19.71484375 6.82828125 -19.71484375 6.16828125 -19.71484375 5.48828125 C-13.6122559 -0.36427728 -8.17098072 -0.1806998 0 0 Z " fill="#252223" transform="translate(57.71484375,23.51171875)"/>
<path d="M0 0 C9.9 0 19.8 0 30 0 C30 12.87 30 25.74 30 39 C20.1 39 10.2 39 0 39 C0 26.13 0 13.26 0 0 Z " fill="#F8F8F8" transform="translate(140,42)"/>
<path d="M0 0 C10.56 0 21.12 0 32 0 C32 6.27 32 12.54 32 19 C21.44 19 10.88 19 0 19 C0 12.73 0 6.46 0 0 Z " fill="#ECEBEC" transform="translate(51,132)"/>
<path d="M0 0 C1.32 0 2.64 0 4 0 C4.25618326 3.87370627 4.47512868 7.74866447 4.6875 11.625 C4.76033203 12.71941406 4.83316406 13.81382813 4.90820312 14.94140625 C5.213071 20.85942972 5.39715454 25.0221643 2 30 C1.01 29.67 0.02 29.34 -1 29 C-1.02465881 25.03069011 -1.04284023 21.06140966 -1.05493164 17.09204102 C-1.05997057 15.74079614 -1.06680177 14.38955674 -1.07543945 13.03833008 C-1.08752419 11.09979566 -1.09269828 9.161222 -1.09765625 7.22265625 C-1.10289307 6.05484619 -1.10812988 4.88703613 -1.11352539 3.68383789 C-1 1 -1 1 0 0 Z " fill="#1E1B1D" transform="translate(33,56)"/>
<path d="M0 0 C0.33 0.99 0.66 1.98 1 3 C0.67 3.66 0.34 4.32 0 5 C-0.0902835 6.63417595 -0.11755658 8.27202837 -0.11352539 9.90869141 C-0.11344986 10.92959869 -0.11337433 11.95050598 -0.11329651 13.00234985 C-0.10813522 14.10759003 -0.10297394 15.2128302 -0.09765625 16.3515625 C-0.0962413 17.4807309 -0.09482635 18.60989929 -0.09336853 19.77328491 C-0.08775744 23.39054988 -0.07520303 27.00775364 -0.0625 30.625 C-0.05748643 33.07291577 -0.05292328 35.52083252 -0.04882812 37.96875 C-0.0377844 43.97918766 -0.02103544 49.98958946 0 56 C-0.66 56 -1.32 56 -2 56 C-2.05057791 48.34622001 -2.08568184 40.69248287 -2.10986328 33.03857422 C-2.11994064 30.43308909 -2.1336027 27.82761531 -2.15087891 25.22216797 C-2.17505102 21.48402101 -2.1864656 17.74602315 -2.1953125 14.0078125 C-2.20563507 12.83695099 -2.21595764 11.66608948 -2.22659302 10.45974731 C-2.22674408 9.37877777 -2.22689514 8.29780823 -2.22705078 7.18408203 C-2.231492 6.22921906 -2.23593323 5.27435608 -2.24050903 4.29055786 C-2 2 -2 2 0 0 Z " fill="#515151" transform="translate(126,124)"/>
<path d="M0 0 C0.66 0.66 1.32 1.32 2 2 C2.66 1.67 3.32 1.34 4 1 C3.34 3.64 2.68 6.28 2 9 C1.01 8.67 0.02 8.34 -1 8 C-1.99 8 -2.98 8 -4 8 C-3.67 7.34 -3.34 6.68 -3 6 C-2.855625 5.154375 -2.71125 4.30875 -2.5625 3.4375 C-2.376875 2.633125 -2.19125 1.82875 -2 1 C-1.34 0.67 -0.68 0.34 0 0 Z " fill="#1C1A1B" transform="translate(186,82)"/>
<path d="M0 0 C0.33 0.66 0.66 1.32 1 2 C1.66 2 2.32 2 3 2 C3.33 1.34 3.66 0.68 4 0 C4.33 2.64 4.66 5.28 5 8 C3.68 8.99 2.36 9.98 1 11 C1.33 8.69 1.66 6.38 2 4 C1.01 4.495 1.01 4.495 0 5 C-0.66 3.68 -1.32 2.36 -2 1 C-1.34 0.67 -0.68 0.34 0 0 Z " fill="#2D2B2C" transform="translate(187,80)"/>
<path d="M0 0 C2.125 0.375 2.125 0.375 4 1 C3.34 2.32 2.68 3.64 2 5 C1.01 5 0.02 5 -1 5 C-1.33 5.66 -1.66 6.32 -2 7 C-2.66 6.67 -3.32 6.34 -4 6 C-2.84826645 3.53199953 -1.95216435 1.95216435 0 0 Z " fill="#363434" transform="translate(125,28)"/>
<path d="M0 0 C0.66 0.33 1.32 0.66 2 1 C-0.81094619 4.56053184 -3.20377502 7.46918335 -7 10 C-7.99 9.67 -8.98 9.34 -10 9 C-8.625 7.5 -8.625 7.5 -7 6 C-6.34 6 -5.68 6 -5 6 C-5 5.34 -5 4.68 -5 4 C-3.37373596 2.61767557 -1.7074998 1.28062485 0 0 Z " fill="#504F4F" transform="translate(43,25)"/>
<path d="M0 0 C0.66 0 1.32 0 2 0 C2.52992692 1.45505358 3.0486789 2.91418127 3.5625 4.375 C3.85253906 5.18710938 4.14257812 5.99921875 4.44140625 6.8359375 C5 9 5 9 4 11 C3.13341385 9.73760288 2.28207941 8.46472499 1.4375 7.1875 C0.72400391 6.12595703 0.72400391 6.12595703 -0.00390625 5.04296875 C-1 3 -1 3 0 0 Z " fill="#3C3B3C" transform="translate(75,173)"/>
<path d="M0 0 C0 3.77910478 -0.99703962 4.46106101 -3.5 7.1875 C-4.1496875 7.90292969 -4.799375 8.61835938 -5.46875 9.35546875 C-5.9740625 9.89816406 -6.479375 10.44085938 -7 11 C-7.66 10.01 -8.32 9.02 -9 8 C-6.03 5.36 -3.06 2.72 0 0 Z " fill="#D4D2D3" transform="translate(103,156)"/>
<path d="M0 0 C1.32 0 2.64 0 4 0 C4 1.98 4 3.96 4 6 C2.68 5.67 1.36 5.34 0 5 C0 3.35 0 1.7 0 0 Z " fill="#272526" transform="translate(43,92)"/>
<path d="M0 0 C0.66 0 1.32 0 2 0 C2 0.66 2 1.32 2 2 C2.99 2.66 3.98 3.32 5 4 C4.01 4.495 4.01 4.495 3 5 C3.33 5.66 3.66 6.32 4 7 C1.525 6.01 1.525 6.01 -1 5 C-1 4.34 -1 3.68 -1 3 C-1.66 2.67 -2.32 2.34 -3 2 C-2.01 2 -1.02 2 0 2 C0 1.34 0 0.68 0 0 Z " fill="#1B191A" transform="translate(67,161)"/>
<path d="M0 0 C0.66 0.33 1.32 0.66 2 1 C0.19587357 4.26460973 -0.83394693 5.88929795 -4 8 C-4.66 7.67 -5.32 7.34 -6 7 C-6 6.34 -6 5.68 -6 5 C-4.04072937 3.2856382 -2.04119788 1.61594832 0 0 Z " fill="#545051" transform="translate(134,117)"/>
<path d="M0 0 C2.31 0 4.62 0 7 0 C6.67 1.65 6.34 3.3 6 5 C3.98079663 3.69593116 1.98075027 2.36176581 0 1 C0 0.67 0 0.34 0 0 Z " fill="#312E2F" transform="translate(128,181)"/>
<path d="M0 0 C1.32 0 2.64 0 4 0 C4.66 2.31 5.32 4.62 6 7 C2.99390037 5.99796679 1.93823179 5.39971554 0 3 C0 2.01 0 1.02 0 0 Z " fill="#373536" transform="translate(32,85)"/>
<path d="M0 0 C0.33 0.66 0.66 1.32 1 2 C0.67 2.99 0.34 3.98 0 5 C-3.5625 6.1875 -3.5625 6.1875 -7 7 C-4.66666667 4.66666667 -2.33333333 2.33333333 0 0 Z " fill="#413F40" transform="translate(39,119)"/>
</svg>
